<svg xmlns="http://www.w3.org/2000/svg" width="34" height="34" fill="none" viewBox="0 0 30 27">
  <path fill="#02C4FF" d="M15.383 4.924 14.09 3.606C11.052.514 5.482 1.581 3.472 5.47c-.944 1.829-1.157 4.469.567 7.838 1.66 3.245 5.114 7.13 11.344 11.363 6.23-4.233 9.683-8.119 11.345-11.363 1.723-3.371 1.512-6.01.567-7.838-2.01-3.888-7.58-4.957-10.618-1.864l-1.294 1.319Zm0 21.9c-27.672-18.11-8.52-32.246-.317-24.77.108.1.214.202.317.307.102-.106.208-.207.318-.304 8.2-7.483 27.354 6.655-.318 24.767Z"/>
</svg>
