<svg xmlns="http://www.w3.org/2000/svg" width="14" height="14" fill="none" viewBox="0 0 14 14">
  <path fill="#B7B7B7" d="M1.397 4h9.783V2.667H1.397V4Zm0 9.333c-.384 0-.713-.13-.986-.391A1.255 1.255 0 0 1 0 12V2.667c0-.367.137-.68.41-.942a1.38 1.38 0 0 1 .987-.392h.7V0h1.397v1.333h5.59V0h1.397v1.333h.699c.384 0 .713.13.987.392.273.261.41.575.41.942V6.45a4.982 4.982 0 0 0-1.397-.4v-.717H1.397V12H5.8c.082.244.178.478.289.7.11.222.241.433.393.633H1.397Zm9.084.667c-.967 0-1.79-.325-2.472-.975-.681-.65-1.022-1.436-1.022-2.358 0-.923.34-1.709 1.022-2.359.681-.65 1.505-.975 2.472-.975.966 0 1.79.325 2.472.975.681.65 1.022 1.436 1.022 2.359 0 .922-.341 1.708-1.022 2.358-.681.65-1.505.975-2.472.975Zm1.17-1.75.49-.467-1.31-1.25V8.667h-.7V10.8l1.52 1.45Z"/>
</svg>
