<svg xmlns="http://www.w3.org/2000/svg" width="12" height="14" fill="none" viewBox="0 0 12 14">
  <path fill="#B7B7B7" d="M5.893 14c-1.322 0-2.402-.195-3.238-.586-.836-.391-1.254-.896-1.254-1.514 0-.28.09-.54.272-.779.18-.239.433-.446.758-.621l1.179 1.033c-.112.046-.234.099-.365.157a.918.918 0 0 0-.309.21c.162.187.537.35 1.123.49.587.14 1.198.21 1.834.21.637 0 1.251-.07 1.844-.21.593-.14.97-.303 1.132-.49a.977.977 0 0 0-.337-.228 9.75 9.75 0 0 0-.393-.157l1.16-1.05c.35.187.618.4.805.639.188.239.281.504.281.796 0 .618-.418 1.123-1.254 1.514-.836.39-1.915.586-3.238.586Zm.019-3.85c1.235-.852 2.165-1.706 2.789-2.564.624-.857.936-1.718.936-2.581 0-1.19-.406-2.088-1.217-2.695-.811-.607-1.653-.91-2.527-.91-.873 0-1.715.303-2.526.91-.811.607-1.217 1.505-1.217 2.695 0 .782.306 1.595.917 2.441.612.846 1.56 1.747 2.845 2.704Zm-.019 1.75c-1.759-1.213-3.072-2.392-3.94-3.535-.867-1.143-1.3-2.263-1.3-3.36 0-.828.159-1.555.477-2.179A4.963 4.963 0 0 1 2.356 1.26c.5-.42 1.06-.735 1.684-.945A5.782 5.782 0 0 1 5.893 0c.612 0 1.23.105 1.853.315a4.978 4.978 0 0 1 2.911 2.511c.318.624.477 1.35.477 2.179 0 1.097-.434 2.217-1.301 3.36-.867 1.143-2.18 2.322-3.94 3.535Zm0-5.6c.412 0 .765-.137 1.058-.411.293-.274.44-.604.44-.989s-.147-.715-.44-.989A1.493 1.493 0 0 0 5.893 3.5c-.411 0-.764.137-1.057.411-.293.274-.44.604-.44.989s.147.715.44.989c.293.274.646.411 1.057.411Z"/>
</svg>
