<svg xmlns="http://www.w3.org/2000/svg" width="15" height="14" fill="none" viewBox="0 0 15 14">
  <path fill="#B7B7B7" d="m10.12 10.29.978-.98-2.585-2.59V3.5H7.115v3.78l3.005 3.01ZM7.814 14a6.795 6.795 0 0 1-2.725-.551 7.055 7.055 0 0 1-2.219-1.496A7.07 7.07 0 0 1 1.377 9.73 6.827 6.827 0 0 1 .827 7c0-.968.183-1.878.55-2.73A7.07 7.07 0 0 1 2.87 2.048 7.055 7.055 0 0 1 5.09.55 6.793 6.793 0 0 1 7.814 0a6.8 6.8 0 0 1 2.725.551c.85.368 1.59.866 2.219 1.496A7.07 7.07 0 0 1 14.25 4.27c.367.852.55 1.762.55 2.73s-.183 1.878-.55 2.73a7.07 7.07 0 0 1-1.493 2.223 7.056 7.056 0 0 1-2.219 1.496A6.795 6.795 0 0 1 7.814 14Zm0-1.4c1.549 0 2.868-.545 3.957-1.636C12.858 9.873 13.404 8.552 13.404 7s-.545-2.873-1.633-3.964C10.68 1.946 9.363 1.4 7.814 1.4s-2.868.545-3.957 1.636C2.77 4.127 2.224 5.448 2.224 7s.545 2.873 1.633 3.964c1.09 1.09 2.408 1.636 3.957 1.636Z"/>
</svg>
